<?xml version="1.0" encoding="iso-8859-1"?>
<!-- Generator: Adobe Illustrator 19.0.0, SVG Export Plug-In . SVG Version: 6.00 Build 0)  -->
<svg version="1.1" id="Layer_1" xmlns="http://www.w3.org/2000/svg" xmlns:xlink="http://www.w3.org/1999/xlink" x="0px" y="0px"
	 viewBox="0 0 511.448 511.448" style="enable-background:new 0 0 511.448 511.448;" xml:space="preserve">
<path style="fill:#FFFFFF;" d="M371.159,87.266v336.915H140.289V87.266H371.159z M352.38,132.004c0-4.573-3.712-8.285-8.285-8.285
	h-70.697c-4.573,0-8.285,3.712-8.285,8.285c0,4.573,3.712,8.285,8.285,8.285h70.697C348.668,140.289,352.38,136.578,352.38,132.004z
	 M352.38,220.375c0-4.573-3.712-8.285-8.285-8.285h-70.697c-4.573,0-8.285,3.712-8.285,8.285s3.712,8.285,8.285,8.285h70.697
	C348.668,228.66,352.38,224.949,352.38,220.375z M352.38,308.746c0-4.573-3.712-8.285-8.285-8.285h-70.697
	c-4.573,0-8.285,3.712-8.285,8.285c0,4.573,3.712,8.285,8.285,8.285h70.697C348.668,317.031,352.38,313.32,352.38,308.746z
	 M352.38,397.118c0-4.573-3.712-8.285-8.285-8.285h-17.674c-4.573,0-8.285,3.712-8.285,8.285c0,4.573,3.712,8.285,8.285,8.285
	h17.674C348.668,405.402,352.38,401.691,352.38,397.118z M317.031,167.353c0-4.573-3.712-8.285-8.285-8.285h-35.348
	c-4.573,0-8.285,3.712-8.285,8.285c0,4.573,3.712,8.285,8.285,8.285h35.348C313.32,175.638,317.031,171.926,317.031,167.353z
	 M317.031,255.724c0-4.573-3.712-8.285-8.285-8.285h-35.348c-4.573,0-8.285,3.712-8.285,8.285s3.712,8.285,8.285,8.285h35.348
	C313.32,264.009,317.031,260.297,317.031,255.724z M317.031,344.095c0-4.573-3.712-8.285-8.285-8.285h-35.348
	c-4.573,0-8.285,3.712-8.285,8.285s3.712,8.285,8.285,8.285h35.348C313.32,352.38,317.031,348.668,317.031,344.095z
	 M299.357,397.118c0-4.573-3.712-8.285-8.285-8.285h-17.674c-4.573,0-8.285,3.712-8.285,8.285c0,4.573,3.712,8.285,8.285,8.285
	h17.674C295.645,405.402,299.357,401.691,299.357,397.118z M246.334,352.932v-53.023c0-4.573-3.712-8.285-8.285-8.285h-70.697
	c-4.573,0-8.285,3.712-8.285,8.285v53.023c0,4.573,3.712,8.285,8.285,8.285h70.697C242.623,361.217,246.334,357.505,246.334,352.932
	z M246.334,264.561v-53.023c0-4.573-3.712-8.285-8.285-8.285h-70.697c-4.573,0-8.285,3.712-8.285,8.285v53.023
	c0,4.573,3.712,8.285,8.285,8.285h70.697C242.623,272.846,246.334,269.134,246.334,264.561z M246.334,176.19v-53.023
	c0-4.573-3.712-8.285-8.285-8.285h-70.697c-4.573,0-8.285,3.712-8.285,8.285v53.023c0,4.573,3.712,8.285,8.285,8.285h70.697
	C242.623,184.475,246.334,180.763,246.334,176.19z M246.334,397.118c0-4.573-3.712-8.285-8.285-8.285h-17.674
	c-4.573,0-8.285,3.712-8.285,8.285c0,4.573,3.712,8.285,8.285,8.285h17.674C242.623,405.402,246.334,401.691,246.334,397.118z
	 M193.312,397.118c0-4.573-3.712-8.285-8.285-8.285h-17.674c-4.573,0-8.285,3.712-8.285,8.285c0,4.573,3.712,8.285,8.285,8.285
	h17.674C189.6,405.402,193.312,401.691,193.312,397.118z"/>
<g>
	<path style="fill:#C2E95D;" d="M371.159,440.751v27.064c0,14.924-12.14,27.064-27.064,27.064H167.353
		c-14.924,0-27.064-12.14-27.064-27.064v-27.064H371.159z M271.741,467.814c0-8.837-7.18-16.017-16.017-16.017
		s-16.017,7.18-16.017,16.017c0,8.837,7.18,16.017,16.017,16.017S271.741,476.652,271.741,467.814z"/>
	<rect x="175.638" y="308.194" style="fill:#C2E95D;" width="54.127" height="36.453"/>
	<rect x="175.638" y="219.823" style="fill:#C2E95D;" width="54.127" height="36.453"/>
	<path style="fill:#C2E95D;" d="M371.159,43.633v27.064H140.289V43.633c0-14.924,12.14-27.064,27.064-27.064h176.742
		C359.019,16.57,371.159,28.71,371.159,43.633z M290.52,43.633c0-4.573-3.712-8.285-8.285-8.285h-53.023
		c-4.573,0-8.285,3.712-8.285,8.285s3.712,8.285,8.285,8.285h53.023C286.808,51.918,290.52,48.206,290.52,43.633z"/>
	<rect x="175.638" y="131.452" style="fill:#C2E95D;" width="54.127" height="36.453"/>
</g>
<g>
	<path style="fill:#535757;" d="M387.728,43.633v424.181c0,24.059-19.574,43.633-43.633,43.633H167.353
		c-24.059,0-43.633-19.574-43.633-43.633V43.633C123.72,19.574,143.294,0,167.353,0h176.742
		C368.154,0,387.728,19.574,387.728,43.633z M371.159,467.814v-27.064H140.289v27.064c0,14.924,12.14,27.064,27.064,27.064h176.742
		C359.019,494.878,371.159,482.738,371.159,467.814z M371.159,424.181V87.266H140.289v336.915H371.159z M371.159,70.697V43.633
		c0-14.924-12.14-27.064-27.064-27.064H167.353c-14.924,0-27.064,12.14-27.064,27.064v27.064H371.159z"/>
	<path style="fill:#535757;" d="M344.095,123.72c4.573,0,8.285,3.712,8.285,8.285c0,4.573-3.712,8.285-8.285,8.285h-70.697
		c-4.573,0-8.285-3.712-8.285-8.285c0-4.573,3.712-8.285,8.285-8.285H344.095z"/>
	<path style="fill:#535757;" d="M344.095,212.091c4.573,0,8.285,3.712,8.285,8.285s-3.712,8.285-8.285,8.285h-70.697
		c-4.573,0-8.285-3.712-8.285-8.285s3.712-8.285,8.285-8.285H344.095z"/>
	<path style="fill:#535757;" d="M344.095,300.462c4.573,0,8.285,3.712,8.285,8.285c0,4.573-3.712,8.285-8.285,8.285h-70.697
		c-4.573,0-8.285-3.712-8.285-8.285c0-4.573,3.712-8.285,8.285-8.285H344.095z"/>
	<path style="fill:#535757;" d="M344.095,388.833c4.573,0,8.285,3.712,8.285,8.285c0,4.573-3.712,8.285-8.285,8.285h-17.674
		c-4.573,0-8.285-3.712-8.285-8.285c0-4.573,3.712-8.285,8.285-8.285H344.095z"/>
	<path style="fill:#535757;" d="M308.746,159.068c4.573,0,8.285,3.712,8.285,8.285c0,4.573-3.712,8.285-8.285,8.285h-35.348
		c-4.573,0-8.285-3.712-8.285-8.285c0-4.573,3.712-8.285,8.285-8.285H308.746z"/>
	<path style="fill:#535757;" d="M308.746,247.439c4.573,0,8.285,3.712,8.285,8.285s-3.712,8.285-8.285,8.285h-35.348
		c-4.573,0-8.285-3.712-8.285-8.285s3.712-8.285,8.285-8.285H308.746z"/>
	<path style="fill:#535757;" d="M308.746,335.81c4.573,0,8.285,3.712,8.285,8.285s-3.712,8.285-8.285,8.285h-35.348
		c-4.573,0-8.285-3.712-8.285-8.285s3.712-8.285,8.285-8.285H308.746z"/>
	<path style="fill:#535757;" d="M291.072,388.833c4.573,0,8.285,3.712,8.285,8.285c0,4.573-3.712,8.285-8.285,8.285h-17.674
		c-4.573,0-8.285-3.712-8.285-8.285c0-4.573,3.712-8.285,8.285-8.285H291.072z"/>
	<path style="fill:#535757;" d="M282.235,35.348c4.573,0,8.285,3.712,8.285,8.285s-3.712,8.285-8.285,8.285h-53.023
		c-4.573,0-8.285-3.712-8.285-8.285s3.712-8.285,8.285-8.285H282.235z"/>
	<path style="fill:#535757;" d="M255.724,451.797c8.837,0,16.017,7.18,16.017,16.017c0,8.837-7.18,16.017-16.017,16.017
		s-16.017-7.18-16.017-16.017C239.707,458.977,246.887,451.797,255.724,451.797z M256.276,467.814c0-0.309-0.243-0.552-0.552-0.552
		c-0.309,0-0.552,0.243-0.552,0.552c0,0.309,0.243,0.552,0.552,0.552C256.033,468.367,256.276,468.124,256.276,467.814z"/>
	<path style="fill:#535757;" d="M246.334,299.909v53.023c0,4.573-3.712,8.285-8.285,8.285h-70.697c-4.573,0-8.285-3.712-8.285-8.285
		v-53.023c0-4.573,3.712-8.285,8.285-8.285h70.697C242.623,291.625,246.334,295.336,246.334,299.909z M229.765,344.647v-36.453
		h-54.127v36.453H229.765z"/>
	<path style="fill:#535757;" d="M246.334,211.538v53.023c0,4.573-3.712,8.285-8.285,8.285h-70.697c-4.573,0-8.285-3.712-8.285-8.285
		v-53.023c0-4.573,3.712-8.285,8.285-8.285h70.697C242.623,203.253,246.334,206.965,246.334,211.538z M229.765,256.276v-36.453
		h-54.127v36.453H229.765z"/>
	<path style="fill:#535757;" d="M246.334,123.167v53.023c0,4.573-3.712,8.285-8.285,8.285h-70.697c-4.573,0-8.285-3.712-8.285-8.285
		v-53.023c0-4.573,3.712-8.285,8.285-8.285h70.697C242.623,114.882,246.334,118.594,246.334,123.167z M229.765,167.905v-36.453
		h-54.127v36.453H229.765z"/>
	<path style="fill:#535757;" d="M238.05,388.833c4.573,0,8.285,3.712,8.285,8.285c0,4.573-3.712,8.285-8.285,8.285h-17.674
		c-4.573,0-8.285-3.712-8.285-8.285c0-4.573,3.712-8.285,8.285-8.285H238.05z"/>
	<path style="fill:#535757;" d="M185.027,388.833c4.573,0,8.285,3.712,8.285,8.285c0,4.573-3.712,8.285-8.285,8.285h-17.674
		c-4.573,0-8.285-3.712-8.285-8.285c0-4.573,3.712-8.285,8.285-8.285H185.027z"/>
</g>
<g>
</g>
<g>
</g>
<g>
</g>
<g>
</g>
<g>
</g>
<g>
</g>
<g>
</g>
<g>
</g>
<g>
</g>
<g>
</g>
<g>
</g>
<g>
</g>
<g>
</g>
<g>
</g>
<g>
</g>
</svg>
