<?xml version="1.0" encoding="iso-8859-1"?>
<!-- Generator: Adobe Illustrator 19.0.0, SVG Export Plug-In . SVG Version: 6.00 Build 0)  -->
<svg version="1.1" id="Layer_1" xmlns="http://www.w3.org/2000/svg" xmlns:xlink="http://www.w3.org/1999/xlink" x="0px" y="0px"
	 viewBox="0 0 512 512" style="enable-background:new 0 0 512 512;" xml:space="preserve">
<g>
	<g>
		<g>
			<path d="M433.268,174.486c-3.001-21.382-20.002-37.955-40.859-37.955c-12.843,0-24.568,6.381-32.262,16.792
				c-0.739-0.062-1.482-0.093-2.229-0.093c-12.484,0-23.133,8.519-27.08,20.532c-9.306,6.468-15.101,17.606-15.101,29.738
				c0,19.334,14.599,35.43,32.93,35.43h50.475c0.535-0.011,0.631-0.013,0.842-0.027c0.207,0.014,0.307,0.016,0.839,0.027h20.198
				c17.403,0,31.249-15.263,31.249-33.579C452.27,191.771,444.606,179.686,433.268,174.486z M421.021,221.865h-20.059
				c-0.255-0.018-0.255-0.018-0.717-0.039c-0.974,0.02-0.974,0.02-1.21,0.037c-0.015,0.001-50.368,0.002-50.368,0.002
				c-8.514,0-15.863-8.103-15.863-18.364c0-7.29,3.789-13.747,9.389-16.707l3.594-1.9l0.789-3.988
				c1.245-6.29,6.05-10.609,11.341-10.609c1.147,0,2.272,0.201,3.378,0.598l6.922,2.487l3.481-6.479
				c4.443-8.269,12.255-13.306,20.711-13.306c13.086,0,24.076,11.98,24.261,27.265l0.083,6.857l6.714,1.395
				c6.576,1.367,11.737,8.131,11.737,16.238C435.203,214.594,428.608,221.865,421.021,221.865z"/>
			<path d="M170.667,349.867c4.713,0,8.533-3.82,8.533-8.533V281.6c0-4.713-3.821-8.533-8.533-8.533h-8.533v-8.533
				c0-18.853-15.281-34.133-34.133-34.133c-18.853,0-34.133,15.281-34.133,34.133v8.533h-8.533c-4.713,0-8.533,3.821-8.533,8.533
				v59.733c0,4.713,3.82,8.533,8.533,8.533H170.667z M110.933,264.533c0-9.427,7.64-17.067,17.067-17.067
				c9.427,0,17.067,7.64,17.067,17.067v8.533h-34.133V264.533z M93.867,290.133h68.267V332.8H93.867V290.133z"/>
			<path d="M247.467,42.667h42.667c4.713,0,8.533-3.82,8.533-8.533s-3.821-8.533-8.533-8.533h-42.667
				c-4.713,0-8.533,3.821-8.533,8.533S242.754,42.667,247.467,42.667z"/>
			<path d="M213.333,42.667h8.533c4.713,0,8.533-3.82,8.533-8.533s-3.821-8.533-8.533-8.533h-8.533
				c-4.713,0-8.533,3.821-8.533,8.533S208.62,42.667,213.333,42.667z"/>
			<path d="M494.933,191.147c0-48.884-40.879-88.955-93.867-96.133V59.733V33.809C401.067,15.136,385.931,0,367.258,0H144.742
				c-18.673,0-33.809,15.136-33.809,33.809v25.924V76.8c-4.713,0-8.533,3.82-8.533,8.533v8.533c0,4.713,3.821,8.533,8.533,8.533
				v8.533c-4.713,0-8.533,3.82-8.533,8.533V128c0,4.713,3.821,8.533,8.533,8.533v8.533c-4.713,0-8.533,3.821-8.533,8.533v8.533
				c0,4.713,3.821,8.533,8.533,8.533v26.747c-52.988,7.178-93.867,47.249-93.867,96.133c0,49.104,41.105,90.359,93.867,97.791V435.2
				v42.991c0,18.673,15.136,33.809,33.809,33.809h222.515c18.673,0,33.809-15.136,33.809-33.809V435.2V288.938
				C453.829,281.505,494.933,240.251,494.933,191.147z M144.742,17.067h222.515c9.248,0,16.742,7.495,16.742,16.742V51.2H128V33.809
				C128,24.561,135.495,17.067,144.742,17.067z M34.133,293.547c0-41.463,37.087-75.994,84.941-79.85
				c0.333,0.015,0.669,0.015,1.009-0.01c2.661-0.193,4.653-0.301,6.5-0.338c0.472-0.006,0.942-0.015,1.416-0.015
				c52.089,0,93.867,36.206,93.867,80.213c0,15.323-5.155,29.284-15.319,42.612c-1.288,1.689-1.9,3.798-1.716,5.914
				c1.303,14.991,3.943,28.429,8.412,39.205c-6.96-1.395-13.823-3.153-20.281-5.305c-6.845-2.281-12.915-4.91-17.995-7.875
				c-2.289-1.336-5.069-1.533-7.523-0.533c-12.907,5.261-25.692,7.902-39.446,7.902c-0.465,0-0.928-0.01-1.392-0.016
				c-1.837-0.038-3.82-0.15-6.499-0.353c-0.345-0.026-0.686-0.026-1.023-0.012C71.555,371.072,34.133,335.354,34.133,293.547z
				 M128,478.191v-34.458h105.434c-7.09,6.254-11.567,15.401-11.567,25.6s4.477,19.346,11.567,25.6h-88.692
				C135.495,494.933,128,487.439,128,478.191z M256,486.4c-9.427,0-17.067-7.64-17.067-17.067s7.64-17.067,17.067-17.067
				c9.427,0,17.067,7.64,17.067,17.067S265.427,486.4,256,486.4z M367.258,494.933h-88.692c7.09-6.254,11.567-15.401,11.567-25.6
				s-4.477-19.346-11.567-25.6H384v34.458C384,487.439,376.505,494.933,367.258,494.933z M384,426.667H128v-34.133
				c14.648,0,28.409-2.583,42.047-7.666c5.282,2.754,11.152,5.174,17.52,7.296c9.237,3.079,19.054,5.39,28.86,7.058
				c3.425,0.583,6.61,1.045,9.478,1.399c1.747,0.216,3.02,0.349,3.742,0.413c8.012,0.709,12.466-9.046,6.683-14.636
				c-7.348-7.102-12.17-23.188-14.193-42.623c11.025-15.418,16.795-32.063,16.795-50.228c0-54.02-49.918-97.28-110.933-97.28v-128
				h256v25.6c-61.015,0-110.933,43.26-110.933,97.28c0,18.165,5.77,34.81,16.795,50.228c-2.023,19.435-6.845,35.521-14.193,42.623
				c-5.783,5.59-1.329,15.345,6.683,14.636c0.722-0.064,1.995-0.197,3.742-0.413c2.868-0.354,6.053-0.816,9.478-1.399
				c9.806-1.668,19.623-3.979,28.86-7.058c6.368-2.122,12.239-4.542,17.52-7.296c13.638,5.083,27.399,7.666,42.047,7.666V426.667z
				 M392.914,272.686c-0.337-0.015-0.678-0.014-1.023,0.012c-2.679,0.202-4.661,0.315-6.499,0.353
				c-0.464,0.006-0.927,0.016-1.392,0.016c-13.753,0-26.538-2.641-39.446-7.902c-2.454-1-5.234-0.804-7.523,0.533
				c-5.08,2.965-11.15,5.594-17.995,7.875c-6.458,2.152-13.321,3.91-20.281,5.305c4.469-10.776,7.109-24.214,8.412-39.205
				c0.184-2.116-0.428-4.225-1.716-5.914c-10.164-13.328-15.319-27.288-15.319-42.612c0-44.008,41.777-80.213,93.867-80.213
				c0.473,0,0.944,0.009,1.416,0.015c1.847,0.037,3.839,0.145,6.5,0.338c0.341,0.025,0.677,0.025,1.009,0.01
				c47.854,3.856,84.941,38.387,84.941,79.85C477.867,232.954,440.445,268.672,392.914,272.686z"/>
		</g>
	</g>
</g>
<g>
</g>
<g>
</g>
<g>
</g>
<g>
</g>
<g>
</g>
<g>
</g>
<g>
</g>
<g>
</g>
<g>
</g>
<g>
</g>
<g>
</g>
<g>
</g>
<g>
</g>
<g>
</g>
<g>
</g>
</svg>
