<?xml version="1.0" encoding="iso-8859-1"?>
<!-- Generator: Adobe Illustrator 19.0.0, SVG Export Plug-In . SVG Version: 6.00 Build 0)  -->
<svg version="1.1" id="Layer_1" xmlns="http://www.w3.org/2000/svg" xmlns:xlink="http://www.w3.org/1999/xlink" x="0px" y="0px"
	 viewBox="0 0 512.002 512.002" style="enable-background:new 0 0 512.002 512.002;" xml:space="preserve">
<g>
	<g>
		<g>
			<path d="M256.001,42.668h42.667c4.713,0,8.533-3.82,8.533-8.533s-3.82-8.533-8.533-8.533h-42.667
				c-4.713,0-8.533,3.821-8.533,8.533S251.288,42.668,256.001,42.668z"/>
			<path d="M221.868,42.668h8.533c4.713,0,8.533-3.82,8.533-8.533s-3.82-8.533-8.533-8.533h-8.533c-4.713,0-8.533,3.821-8.533,8.533
				S217.155,42.668,221.868,42.668z"/>
			<path d="M477.604,93.868h-68.003V59.734V33.81c0-18.673-15.136-33.809-33.809-33.809H153.277
				c-18.673,0-33.809,15.136-33.809,33.809v25.924v17.067c-4.713,0-8.533,3.82-8.533,8.533v8.533c0,4.713,3.82,8.533,8.533,8.533
				v8.533c-4.713,0-8.533,3.82-8.533,8.533v8.533c0,4.713,3.82,8.533,8.533,8.533v42.667h-85.07C15.4,179.201,0,194.601,0,213.599
				v118.938c0,18.998,15.4,34.398,34.398,34.398h85.07v68.267v42.991c0,18.673,15.136,33.809,33.809,33.809h222.515
				c18.673,0,33.809-15.136,33.809-33.809v-42.991v-153.6h68.003c18.998,0,34.398-15.4,34.398-34.398V128.265
				C512.002,109.268,496.602,93.868,477.604,93.868z M153.277,17.068h222.515c9.248,0,16.742,7.495,16.742,16.742v17.391h-256V33.81
				C136.534,24.562,144.029,17.068,153.277,17.068z M17.067,332.536V213.599c0-9.572,7.759-17.331,17.331-17.331h93.603h59.468
				c9.572,0,17.331,7.759,17.331,17.331v118.938c0,9.572-7.759,17.331-17.331,17.331c-3.489,0-6.627,2.124-7.923,5.364
				l-9.143,22.858l-9.143-22.858c-1.296-3.24-4.434-5.364-7.923-5.364h-0.001h-25.335H34.398
				C24.826,349.868,17.067,342.108,17.067,332.536z M136.534,478.192v-34.458h105.434c-7.09,6.254-11.567,15.401-11.567,25.6
				s4.477,19.346,11.567,25.6h-88.692C144.029,494.934,136.534,487.44,136.534,478.192z M264.534,486.401
				c-9.427,0-17.067-7.64-17.067-17.067s7.64-17.067,17.067-17.067c9.427,0,17.067,7.64,17.067,17.067
				S273.961,486.401,264.534,486.401z M375.792,494.934H287.1c7.09-6.254,11.567-15.401,11.567-25.6s-4.477-19.346-11.567-25.6
				h105.434v34.458C392.534,487.44,385.039,494.934,375.792,494.934z M392.534,426.668h-256v-59.733h11.024l14.921,37.303
				c1.431,3.576,4.677,5.364,7.923,5.364c3.246,0,6.493-1.788,7.923-5.364l15.129-37.821c16.145-2.832,28.413-16.923,28.413-33.879
				V213.599c0-18.998-15.4-34.398-34.398-34.398h-0.001h-50.935V68.268h256v25.6h-68.001h-0.001
				c-18.998,0-34.398,15.4-34.398,34.398v118.938c0,16.956,12.268,31.047,28.413,33.879l15.129,37.821
				c1.431,3.576,4.677,5.364,7.923,5.364c3.246,0,6.493-1.788,7.923-5.364l14.921-37.302h28.091V426.668z M494.935,247.203
				c0,9.572-7.759,17.331-17.331,17.331h-76.536h-42.401h-0.001c-3.489,0-6.627,2.124-7.923,5.364l-9.143,22.858l-9.143-22.858
				c-1.296-3.24-4.434-5.364-7.923-5.364c-9.572,0-17.331-7.759-17.331-17.331V128.265c0-9.572,7.759-17.331,17.331-17.331h76.535
				h76.536c9.572,0,17.331,7.759,17.331,17.331V247.203z"/>
			<path d="M450.336,174.487c-3.001-21.382-20.002-37.955-40.859-37.955c-12.843,0-24.568,6.381-32.262,16.792
				c-0.739-0.062-1.482-0.093-2.229-0.093c-12.484,0-23.133,8.519-27.08,20.532c-9.306,6.468-15.101,17.606-15.101,29.738
				c0,19.334,14.599,35.43,32.93,35.43h50.475c0.535-0.011,0.631-0.013,0.842-0.027c0.207,0.014,0.307,0.016,0.839,0.027h20.198
				c17.403,0,31.249-15.263,31.249-33.579C469.338,191.771,461.674,179.687,450.336,174.487z M438.089,221.866h-20.059
				c-0.255-0.018-0.255-0.018-0.717-0.039c-0.974,0.02-0.974,0.02-1.21,0.037c-0.015,0.001-50.368,0.002-50.368,0.002
				c-8.514,0-15.863-8.103-15.863-18.364c0-7.29,3.789-13.747,9.389-16.707l3.594-1.9l0.789-3.988
				c1.245-6.29,6.05-10.609,11.341-10.609c1.147,0,2.272,0.201,3.378,0.598l6.922,2.487l3.481-6.479
				c4.443-8.269,12.255-13.306,20.711-13.306c13.086,0,24.076,11.98,24.261,27.265l0.083,6.857l6.714,1.395
				c6.576,1.367,11.737,8.131,11.737,16.238C452.271,214.595,445.675,221.866,438.089,221.866z"/>
			<path d="M162.134,324.268v-59.733c0-4.713-3.821-8.533-8.533-8.533h-8.533v-8.533c0-18.853-15.281-34.133-34.133-34.133
				c-18.853,0-34.133,15.281-34.133,34.133v8.533h-8.533c-4.713,0-8.533,3.82-8.533,8.533v59.733c0,4.713,3.82,8.533,8.533,8.533
				h85.333C158.314,332.801,162.134,328.98,162.134,324.268z M93.868,247.468c0-9.427,7.64-17.067,17.067-17.067
				c9.427,0,17.067,7.64,17.067,17.067v8.533H93.868V247.468z M145.068,315.734H76.801v-42.667h68.267V315.734z"/>
		</g>
	</g>
</g>
<g>
</g>
<g>
</g>
<g>
</g>
<g>
</g>
<g>
</g>
<g>
</g>
<g>
</g>
<g>
</g>
<g>
</g>
<g>
</g>
<g>
</g>
<g>
</g>
<g>
</g>
<g>
</g>
<g>
</g>
</svg>
